<svg width="36" height="36" viewBox="0 0 36 36" fill="none" xmlns="http://www.w3.org/2000/svg">
<path d="M24.9277 0C25.0115 0 25.0953 0 25.1838 0C25.3893 2.5388 24.4203 4.43578 23.2425 5.80951C22.087 7.17376 20.5046 8.49691 17.9452 8.29614C17.7745 5.7937 18.7451 4.03741 19.9212 2.66684C21.012 1.38954 23.0118 0.252931 24.9277 0Z" fill="#A4ABBD"/>
<path d="M32.6755 26.4246C32.6755 26.4499 32.6755 26.472 32.6755 26.4957C31.9563 28.6741 30.9303 30.541 29.6783 32.2736C28.5354 33.8465 27.1348 35.9632 24.6339 35.9632C22.4729 35.9632 21.0375 34.5737 18.8228 34.5358C16.48 34.4978 15.1917 35.6977 13.0497 35.9996C12.8046 35.9996 12.5596 35.9996 12.3193 35.9996C10.7464 35.772 9.47702 34.5263 8.55224 33.4039C5.82532 30.0873 3.71809 25.8033 3.32605 20.321C3.32605 19.7836 3.32605 19.2477 3.32605 18.7102C3.49204 14.7866 5.3985 11.5965 7.93256 10.0504C9.26993 9.22842 11.1084 8.52812 13.1556 8.84112C14.0329 8.97707 14.9293 9.27743 15.7149 9.57462C16.4595 9.86075 17.3906 10.3682 18.2727 10.3413C18.8702 10.3239 19.4646 10.0125 20.0669 9.79277C21.8311 9.1557 23.5605 8.42537 25.8401 8.7684C28.5796 9.18258 30.524 10.3998 31.7255 12.2778C29.408 13.7527 27.5758 15.9754 27.8888 19.7709C28.167 23.2187 30.1715 25.2358 32.6755 26.4246Z" fill="#A4ABBD"/>
</svg>
