<svg width="36" height="36" viewBox="0 0 36 36" fill="none" xmlns="http://www.w3.org/2000/svg">
<path d="M25.9892 23.5015C30.2539 21.1598 33.4871 19.3754 33.7657 19.2368C34.6572 18.7626 35.5778 17.5079 33.7657 16.5332C33.1807 16.2268 30.0307 14.498 25.9892 12.2686L20.3866 17.9266L25.9892 23.5015Z" fill="#FFD900"/>
<path d="M20.3862 17.9268L2.54688 35.9061C2.96558 35.9616 3.43836 35.8507 3.99571 35.5443C5.16586 34.9037 17.5703 28.1296 25.9888 23.503L20.3862 17.9268Z" fill="#F43249"/>
<path d="M20.3866 17.9269L25.9892 12.2966C25.9892 12.2966 5.25082 0.979059 3.99609 0.310795C3.52331 0.030734 2.99369 -0.0524524 2.51953 0.030734L20.3866 17.9269Z" fill="#00EE76"/>
<path d="M20.3866 17.9264L2.51956 0.0302734C1.79445 0.198033 1.18164 0.838568 1.18164 2.14875C1.18164 4.23951 1.18164 32.0584 1.18164 33.7873C1.18164 34.9866 1.6558 35.8503 2.54728 35.9335L20.3866 17.9264Z" fill="#00D3FF"/>
</svg>
