<svg width="97" height="68" viewBox="0 0 97 68" fill="none" xmlns="http://www.w3.org/2000/svg">
<g clip-path="url(#clip0_1063_71702)">
<path d="M1.1748 13.0594C1.1748 13.2359 1.14216 16.2158 1.0769 17.6953H2.34959L2.54539 14.7955C2.54539 13.706 3.22622 13.1187 4.30759 13.1187L10.9648 12.9608V36.8309C10.9648 37.9204 10.0881 38.8036 9.00678 38.8036H6.85298V39.9873H18.9925V38.8036H16.9367C15.8553 38.8036 14.9787 37.9204 14.9787 36.8309V12.9608L21.1463 13.1187C22.2277 13.1187 22.9085 13.706 22.9085 14.7955L23.1043 17.6953H24.4749V13.454C24.4749 11.9744 24.4749 11.9744 24.8665 11.1853H0.881098C1.1748 11.9744 1.1748 11.9744 1.1748 13.0594Z" fill="white"/>
<path fill-rule="evenodd" clip-rule="evenodd" d="M26.2371 39.9872H35.7334V38.7049H32.9548C32.1009 38.7049 31.5322 37.816 31.8849 37.0324L34.9502 30.2221H46.5024L49.5677 37.0324C49.9204 37.816 49.3517 38.7049 48.4978 38.7049H45.8171V39.9872H56.8797V38.7049H55.78C54.843 38.7049 53.9956 38.144 53.6236 37.2775L42.2927 10.8893H41.02L29.6891 37.2775C29.3171 38.144 28.4696 38.7049 27.5327 38.7049H26.2371V39.9872ZM40.7263 16.413L35.7334 28.4466H45.8171L40.7263 16.413Z" fill="white"/>
<path d="M68.1382 39.9872H58.4461V38.8035H60.502C61.5834 38.8035 62.46 37.9203 62.46 36.8308V14.3416C62.46 13.2521 61.5834 12.3689 60.502 12.3689H58.4461V11.1852H66.2781L77.145 33.9703L87.8161 11.1852H95.8438V12.3689H93.8858C92.8045 12.3689 91.9279 13.2521 91.9279 14.3416V36.8308C91.9279 37.9203 92.8045 38.8035 93.8858 38.8035H95.9417V39.9872H84.4875V38.8035H86.0539C87.1352 38.8035 88.0119 37.9203 88.0119 36.8308V15.7225L76.6555 40.3817H75.6765L64.3201 16.413V36.8308C64.3201 37.9203 65.1968 38.8035 66.2781 38.8035H68.1382V39.9872Z" fill="white"/>
<path d="M94.4832 10.3961H57.7381C57.5045 10.3961 57.2831 10.291 57.1343 10.1096L56.1968 8.96613C55.8576 8.55244 56.0183 7.92567 56.5139 7.72924L75.8779 0.0547705C76.063 -0.0185818 76.2688 -0.0182439 76.4537 0.055715L95.6542 7.73823C96.1402 7.93266 96.3042 8.54308 95.9819 8.95793L95.1 10.0933C94.9516 10.2844 94.7241 10.3961 94.4832 10.3961Z" fill="white"/>
<path d="M47.3835 41.1708H96.3333V45.1163H47.3835V41.1708Z" fill="white"/>
<path d="M37.9851 45.7081H86.935V49.6536H37.9851V45.7081Z" fill="white"/>
<path d="M28.3909 50.2454H77.3408V54.1909H28.3909V50.2454Z" fill="white"/>
<path d="M19.1883 54.9799H68.1382V58.9254H19.1883V54.9799Z" fill="white"/>
<path d="M9.59417 59.5172H58.544V63.4627H9.59417V59.5172Z" fill="white"/>
<path d="M0 64.0545H48.9499V68H0V64.0545Z" fill="white"/>
</g>
<defs>
<clipPath id="clip0_1063_71702">
<rect width="96.3333" height="68" fill="white"/>
</clipPath>
</defs>
</svg>
