<svg width="24" height="24" viewBox="0 0 24 24" fill="none" xmlns="http://www.w3.org/2000/svg">
<path d="M22.6 6.89999C21.9 7.19999 21.1 7.4 20.3 7.5C21.1 7 21.8 6.2 22.1 5.3C21.3 5.8 20.5 6.1 19.5 6.3C18.8 5.5 17.7 5 16.6 5C14.4 5 12.6 6.8 12.6 9C12.6 9.3 12.6 9.59999 12.7 9.89999C9.4 9.69999 6.39999 8.1 4.39999 5.7C4.09999 6.3 3.89999 7 3.89999 7.7C3.89999 9.1 4.6 10.3 5.7 11C5 11 4.39999 10.8 3.89999 10.5C3.89999 12.4 5.29999 14.1 7.09999 14.4C6.79999 14.5 6.4 14.5 6 14.5C5.7 14.5 5.5 14.5 5.2 14.4C5.7 16 7.2 17.2 9 17.2C7.6 18.3 5.9 18.9 4 18.9C3.7 18.9 3.4 18.9 3 18.8C4.8 19.9 6.9 20.6 9.2 20.6C16.6 20.6 20.6 14.5 20.6 9.2V8.7C21.4 8.4 22.1 7.69999 22.6 6.89999Z" fill="white"/>
</svg>
