<svg width="30" height="24" viewBox="0 0 30 24" fill="none" xmlns="http://www.w3.org/2000/svg">
<path d="M29.9 3.34999C28.85 3.79999 27.65 4.1 26.45 4.25C27.65 3.5 28.7 2.3 29.15 0.950005C27.95 1.7 26.75 2.15 25.25 2.45C24.2 1.25 22.55 0.5 20.9 0.5C17.6 0.5 14.9 3.2 14.9 6.5C14.9 6.95 14.9 7.39999 15.05 7.84999C10.1 7.54999 5.59999 5.15 2.59999 1.55C2.14999 2.45 1.84999 3.5 1.84999 4.55C1.84999 6.65 2.9 8.45 4.55 9.5C3.5 9.5 2.59999 9.2 1.84999 8.75C1.84999 11.6 3.94999 14.15 6.64999 14.6C6.19999 14.75 5.6 14.75 5 14.75C4.55 14.75 4.25 14.75 3.8 14.6C4.55 17 6.8 18.8 9.5 18.8C7.4 20.45 4.85 21.35 2 21.35C1.55 21.35 1.1 21.35 0.5 21.2C3.2 22.85 6.35 23.9 9.8 23.9C20.9 23.9 26.9 14.75 26.9 6.8V6.05C28.1 5.6 29.15 4.54999 29.9 3.34999Z" fill="#4582D3"/>
</svg>
