<svg width="34" height="24" viewBox="0 0 34 24" fill="none" xmlns="http://www.w3.org/2000/svg">
<path fill-rule="evenodd" clip-rule="evenodd" d="M3.89373 22.5852C3.30534 22.4111 2.76847 22.1015 2.32844 21.6823C1.8884 21.2631 1.5581 20.7468 1.36542 20.1768C0.264382 17.2311 -0.0618529 4.9304 2.05867 2.50211C2.76442 1.71217 3.76084 1.22583 4.83166 1.14864C10.5204 0.551519 28.0962 0.631136 30.1148 1.34768C30.6825 1.52748 31.2012 1.83038 31.632 2.23368C32.0628 2.63698 32.3945 3.13022 32.6023 3.67645C33.8053 6.72175 33.8461 17.7884 32.4392 20.7142C32.066 21.4759 31.4412 22.0928 30.6653 22.4658C28.5448 23.5008 6.7075 23.4809 3.89373 22.5852ZM12.9263 16.8131L23.1211 11.638L12.9263 6.42319V16.8131Z" fill="#4582D3"/>
</svg>
