<svg width="171" height="120" viewBox="0 0 171 120" fill="none" xmlns="http://www.w3.org/2000/svg">
<g clip-path="url(#clip0_788_93264)">
<path d="M2.57317 23.046C2.57317 23.3574 2.51558 28.6161 2.40041 31.2271H4.64634L4.99187 26.1097C4.99187 24.1871 6.19333 23.1506 8.10163 23.1506L19.8496 22.8719V64.9957C19.8496 66.9183 18.3026 68.477 16.3943 68.477H12.5935V70.5657H34.0163V68.477H30.3882C28.4799 68.477 26.9329 66.9183 26.9329 64.9957V22.8719L37.8171 23.1506C39.7254 23.1506 40.9268 24.1871 40.9268 26.1097L41.2724 31.2271H43.6911V23.7423C43.6911 21.1313 43.6911 21.1313 44.3821 19.7388H2.05488C2.57317 21.1313 2.57317 21.1313 2.57317 23.046Z" fill="white"/>
<path fill-rule="evenodd" clip-rule="evenodd" d="M46.8008 70.5656H63.5589V68.3027H58.6556C57.1486 68.3027 56.1451 66.7341 56.7675 65.3513L62.1768 53.3331H82.563L87.9724 65.3513C88.5948 66.7341 87.5913 68.3027 86.0843 68.3027H81.3537V70.5656H100.876V68.3027H98.9353C97.2818 68.3027 95.7864 67.3129 95.1298 65.7839L75.1341 19.2164H72.8882L52.8925 65.7839C52.236 67.3129 50.7406 68.3027 49.0871 68.3027H46.8008V70.5656ZM72.3699 28.964L63.5589 50.2H81.3537L72.3699 28.964Z" fill="white"/>
<path d="M120.744 70.5656H103.64V68.4768H107.268C109.177 68.4768 110.724 66.9182 110.724 64.9955V25.3087C110.724 23.386 109.177 21.8274 107.268 21.8274H103.64V19.7386H117.461L136.638 59.9476L155.47 19.7386H169.636V21.8274H166.181C164.273 21.8274 162.726 23.386 162.726 25.3087V64.9955C162.726 66.9182 164.273 68.4768 166.181 68.4768H169.809V70.5656H149.596V68.4768H152.36C154.268 68.4768 155.815 66.9182 155.815 64.9955V27.7456L135.774 71.2618H134.047L114.006 28.964V64.9955C114.006 66.9182 115.553 68.4768 117.461 68.4768H120.744V70.5656Z" fill="white"/>
<path d="M167.235 18.3461H102.391C101.979 18.3461 101.588 18.1606 101.325 17.8404L99.6708 15.8226C99.0722 15.0925 99.3558 13.9865 100.23 13.6398L134.402 0.0966538C134.729 -0.0327914 135.092 -0.0321952 135.418 0.0983206L169.302 13.6557C170.159 13.9988 170.449 15.076 169.88 15.8081L168.324 17.8118C168.062 18.149 167.66 18.3461 167.235 18.3461Z" fill="white"/>
<path d="M84.1179 72.6543H170.5V79.6169H84.1179V72.6543Z" fill="white"/>
<path d="M67.5325 80.6613H153.915V87.6239H67.5325V80.6613Z" fill="white"/>
<path d="M50.6016 88.6683H136.984V95.6309H50.6016V88.6683Z" fill="white"/>
<path d="M34.3618 97.0234H120.744V103.986H34.3618V97.0234Z" fill="white"/>
<path d="M17.4309 105.03H103.813V111.993H17.4309V105.03Z" fill="white"/>
<path d="M0.5 113.037H86.8821V120H0.5V113.037Z" fill="white"/>
</g>
<defs>
<clipPath id="clip0_788_93264">
<rect width="170" height="120" fill="white" transform="translate(0.5)"/>
</clipPath>
</defs>
</svg>
