<svg width="68" height="48" viewBox="0 0 68 48" fill="none" xmlns="http://www.w3.org/2000/svg">
<g clip-path="url(#clip0_807_71380)">
<path d="M0.829268 9.2184C0.829268 9.34295 0.806233 11.4464 0.760163 12.4908H1.65854L1.79675 10.4439C1.79675 9.67483 2.27733 9.26025 3.04065 9.26025L7.73984 9.14878V25.9983C7.73984 26.7673 7.12104 27.3908 6.35772 27.3908H4.8374V28.2263H13.4065V27.3908H11.9553C11.192 27.3908 10.5732 26.7673 10.5732 25.9983V9.14878L14.9268 9.26025C15.6902 9.26025 16.1707 9.67483 16.1707 10.4439L16.3089 12.4908H17.2764V9.49691C17.2764 8.45252 17.2764 8.45252 17.5528 7.89551H0.621951C0.829268 8.45252 0.829268 8.45252 0.829268 9.2184Z" fill="#2F3232"/>
<path fill-rule="evenodd" clip-rule="evenodd" d="M18.5203 28.2262H25.2236V27.3211H23.2622C22.6594 27.3211 22.258 26.6936 22.507 26.1405L24.6707 21.3333H32.8252L34.9889 26.1405C35.2379 26.6936 34.8365 27.3211 34.2337 27.3211H32.3415V28.2262H40.1504V27.3211H39.3741C38.7127 27.3211 38.1145 26.9252 37.8519 26.3136L29.8537 7.68656H28.9553L20.957 26.3136C20.6944 26.9252 20.0962 27.3211 19.4348 27.3211H18.5203V28.2262ZM28.748 11.5856L25.2236 20.08H32.3415L28.748 11.5856Z" fill="#2F3232"/>
<path d="M48.0976 28.2262H41.2561V27.3907H42.7073C43.4706 27.3907 44.0894 26.7673 44.0894 25.9982V10.1235C44.0894 9.35441 43.4706 8.73095 42.7073 8.73095H41.2561V7.89544H46.7846L54.4553 23.979L61.9878 7.89544H67.6545V8.73095H66.2724C65.509 8.73095 64.8902 9.35441 64.8902 10.1235V25.9982C64.8902 26.7673 65.509 27.3907 66.2724 27.3907H67.7236V28.2262H59.6382V27.3907H60.7439C61.5072 27.3907 62.126 26.7673 62.126 25.9982V11.0982L54.1098 28.5047H53.4187L45.4024 11.5856V25.9982C45.4024 26.7673 46.0212 27.3907 46.7846 27.3907H48.0976V28.2262Z" fill="#2F3232"/>
<path d="M66.694 7.33842H40.7563C40.5914 7.33842 40.4351 7.26426 40.3301 7.13616L39.6683 6.32903C39.4289 6.03702 39.5423 5.59459 39.8922 5.45594L53.5609 0.0386615C53.6915 -0.0131165 53.8368 -0.0128781 53.9673 0.0393282L67.5206 5.46228C67.8636 5.59952 67.9794 6.03041 67.752 6.32324L67.1294 7.1247C67.0246 7.2596 66.8641 7.33842 66.694 7.33842Z" fill="#2F3232"/>
<path d="M33.4472 29.0617H68V31.8468H33.4472V29.0617Z" fill="#2F3232"/>
<path d="M26.813 32.2645H61.3659V35.0496H26.813V32.2645Z" fill="#2F3232"/>
<path d="M20.0407 35.4673H54.5935V38.2524H20.0407V35.4673Z" fill="#2F3232"/>
<path d="M13.5447 38.8094H48.0976V41.5944H13.5447V38.8094Z" fill="#2F3232"/>
<path d="M6.77236 42.0122H41.3252V44.7972H6.77236V42.0122Z" fill="#2F3232"/>
<path d="M0 45.215H34.5528V48H0V45.215Z" fill="#2F3232"/>
</g>
<defs>
<clipPath id="clip0_807_71380">
<rect width="68" height="48" fill="white"/>
</clipPath>
</defs>
</svg>
